<svg width="143" height="26" viewBox="0 0 143 26" fill="none" xmlns="http://www.w3.org/2000/svg">
<path d="M0.905281 25.1433V2.10331H5.80128L19.2733 18.1673V2.10331H23.9453V25.1433H19.0493L5.51328 9.01531V25.1433H0.905281ZM27.5943 25.1433V2.10331H48.8423V6.74331H32.2663V11.2873H45.6103V15.9593H32.2663V25.1433H27.5943ZM59.0318 25.1433V6.74331H49.8158V2.10331H72.8558V6.74331H63.6718V25.1433H59.0318ZM75.281 25.1433V2.10331H79.889V11.2873H94.193V2.10331H98.801V25.1433H94.193V15.9593H79.889V25.1433H75.281ZM106.884 25.1433C106.073 25.1433 105.316 24.9406 104.612 24.5353C103.929 24.1086 103.385 23.554 102.98 22.8713C102.574 22.1886 102.372 21.442 102.372 20.6313V6.58331H106.916V20.4073C106.916 20.45 106.937 20.4926 106.98 20.5353C107.022 20.578 107.065 20.5993 107.108 20.5993H116.452C116.494 20.5993 116.537 20.578 116.58 20.5353C116.622 20.4926 116.644 20.45 116.644 20.4073V6.58331H121.188V20.6313C121.188 21.442 120.985 22.1886 120.58 22.8713C120.174 23.554 119.63 24.1086 118.948 24.5353C118.265 24.9406 117.508 25.1433 116.676 25.1433H106.884ZM123.873 25.1433V0.503309H128.417V6.58331H138.177C139.009 6.58331 139.766 6.79664 140.449 7.22331C141.131 7.62864 141.675 8.17264 142.081 8.85531C142.486 9.53798 142.689 10.2846 142.689 11.0953V20.6313C142.689 21.442 142.486 22.1886 142.081 22.8713C141.675 23.554 141.131 24.1086 140.449 24.5353C139.766 24.9406 139.009 25.1433 138.177 25.1433H123.873ZM128.609 20.5993H137.953C138.017 20.5993 138.059 20.578 138.081 20.5353C138.123 20.4926 138.145 20.45 138.145 20.4073V11.3193C138.145 11.2766 138.123 11.234 138.081 11.1913C138.059 11.1486 138.017 11.1273 137.953 11.1273H128.609C128.566 11.1273 128.523 11.1486 128.481 11.1913C128.438 11.234 128.417 11.2766 128.417 11.3193V20.4073C128.417 20.45 128.438 20.4926 128.481 20.5353C128.523 20.578 128.566 20.5993 128.609 20.5993Z" fill="#0F051D"/>
</svg>
