<svg width="16" height="9" viewBox="0 0 16 9" fill="none" xmlns="http://www.w3.org/2000/svg">
<path d="M8.13411 2.45737L2.34078 8.17737C2.19411 8.37293 1.98634 8.4707 1.71745 8.4707C1.44856 8.4707 1.22856 8.38515 1.05745 8.21404C0.886337 8.04293 0.800781 7.82293 0.800781 7.55404C0.800781 7.28515 0.898559 7.07737 1.09411 6.9307L7.47411 0.477371C7.66967 0.281816 7.88967 0.184037 8.13411 0.184037C8.37856 0.184037 8.59856 0.281816 8.79411 0.477371L15.1741 6.9307C15.3697 7.07737 15.4674 7.28515 15.4674 7.55404C15.4674 7.82293 15.3819 8.04293 15.2108 8.21404C15.0397 8.38515 14.8197 8.4707 14.5508 8.4707C14.2819 8.4707 14.0741 8.37293 13.9274 8.17737L8.13411 2.45737Z" fill="#7B7583"/>
</svg>
